<svg width="48" height="48" viewBox="0 0 48 48" fill="none" xmlns="http://www.w3.org/2000/svg">
<path d="M23.2926 24.5826V30.6268L21.5137 28.8479C20.2237 27.5579 19.5163 25.8518 19.5163 24.0312C19.5163 22.2107 20.2237 20.4941 21.5137 19.2146L23.948 16.7802C23.948 16.7802 23.9792 16.7594 24 16.7594C24.0208 16.7594 24.0312 16.7594 24.052 16.7802L26.4863 19.2146C27.7763 20.5045 28.4837 22.2107 28.4837 24.0312C28.4837 25.8518 27.7763 27.5683 26.4863 28.8479L24.7074 30.6268V24.5826C24.7074 24.1977 24.3953 23.8752 24 23.8752C23.6047 23.8752 23.2926 24.1873 23.2926 24.5826ZM25.1339 32.1769L27.4746 29.8362C29.0247 28.2861 29.8882 26.2159 29.8882 24.0208C29.8882 21.8257 29.0351 19.7555 27.4746 18.2055L25.0403 15.7711C24.7594 15.4902 24.3953 15.3342 24 15.3342C23.6047 15.3342 23.2302 15.4902 22.9597 15.7711L20.5254 18.2055C18.9753 19.7555 18.1118 21.8257 18.1118 24.0208C18.1118 26.2159 18.9649 28.2861 20.5254 29.8362L22.8661 32.1769C23.1677 32.4785 23.5735 32.645 24 32.645C24.4265 32.645 24.8322 32.4785 25.1339 32.1769Z" fill="#F76C41"/>
<path d="M24 9.74773C16.1456 9.74773 9.74773 16.1352 9.74773 24C9.74773 26.7464 10.528 29.4096 12.0156 31.7087C12.2237 32.0312 12.6606 32.1248 12.9831 31.9168C13.3056 31.7087 13.3992 31.2718 13.1912 30.9493C11.8596 28.8791 11.1521 26.4759 11.1521 24C11.1521 16.9155 16.9155 11.1521 24 11.1521C31.0845 11.1521 36.8479 16.9155 36.8479 24C36.8479 31.0845 31.0845 36.8479 24 36.8479C20.723 36.8479 17.5917 35.6099 15.2094 33.3628C14.9285 33.0923 14.4811 33.1131 14.2107 33.394C13.9402 33.6749 13.961 34.1222 14.2419 34.3927C16.8947 36.8895 20.3589 38.2627 24 38.2627C31.8544 38.2627 38.2523 31.8752 38.2523 24.0104C38.2523 16.1456 31.8648 9.75813 24 9.75813V9.74773Z" fill="#F76C41"/>
<path d="M47.4903 18.3407C47.1678 18.0598 46.7412 17.9246 46.3147 17.9766L41.9142 18.5176C41.9142 18.5176 41.8206 18.4968 41.8102 18.4447C41.4773 17.3732 41.0403 16.3329 40.5202 15.3446C40.4994 15.303 40.5098 15.251 40.541 15.2198L44.0364 12.4942C44.3797 12.2341 44.5878 11.8284 44.6086 11.4018C44.6398 10.9753 44.4734 10.5488 44.1717 10.2471L42.2783 8.35371C42.0078 8.08323 41.5605 8.08323 41.2796 8.35371C41.0091 8.62419 41.0091 9.07152 41.2796 9.35241L43.173 11.2458C43.173 11.2458 43.2042 11.2874 43.2042 11.3186C43.2042 11.3498 43.1938 11.3706 43.1626 11.3914L39.6671 14.117C39.0949 14.5644 38.9285 15.355 39.2614 16.0104C39.7399 16.9259 40.1457 17.8934 40.4473 18.8817C40.6658 19.5787 41.342 20.0156 42.0702 19.9324L46.4708 19.3914C46.4708 19.3914 46.5228 19.3914 46.5436 19.4122C46.5644 19.433 46.5748 19.4538 46.5748 19.4851V28.5462C46.5748 28.5462 46.5644 28.5982 46.5436 28.619C46.5228 28.6398 46.4916 28.6502 46.4708 28.6398L42.0702 28.0988C41.3524 28.0156 40.6658 28.4525 40.4473 29.1496C40.1353 30.1378 39.7399 31.1053 39.2614 32.0208C38.9181 32.6658 39.0949 33.4668 39.6671 33.9142L43.1626 36.6398C43.1626 36.6398 43.1938 36.6814 43.2042 36.7126C43.2042 36.7438 43.2042 36.7646 43.173 36.7854L36.7646 43.1938C36.7646 43.1938 36.723 43.225 36.6918 43.225C36.6606 43.225 36.6398 43.2146 36.619 43.1834L33.8934 39.6879C33.446 39.1157 32.6554 38.9493 32 39.2822C31.0845 39.7607 30.117 40.1665 29.1287 40.4682C28.4317 40.6866 27.9948 41.3628 28.078 42.091L28.619 46.4916C28.619 46.4916 28.619 46.5436 28.5982 46.5644C28.5774 46.5852 28.5566 46.5956 28.5254 46.5956H19.4642C19.4642 46.5956 19.4122 46.5852 19.3914 46.5644C19.3706 46.5436 19.3602 46.5124 19.3706 46.4916L19.9116 42.091C20.0052 41.3732 19.5579 40.6866 18.8609 40.4682C17.8726 40.1561 16.9051 39.7607 15.9896 39.2822C15.3446 38.9389 14.5436 39.1157 14.0962 39.6879L11.3706 43.1834C11.3706 43.1834 11.329 43.2146 11.2978 43.225C11.2666 43.225 11.2458 43.225 11.225 43.1938L4.81666 36.7854C4.81666 36.7854 4.78545 36.7438 4.78545 36.7126C4.78545 36.6814 4.79585 36.6606 4.82706 36.6398L8.32251 33.9142C8.89468 33.4668 9.06113 32.6762 8.72823 32.0208C8.24969 31.1053 7.84396 30.1378 7.54227 29.1496C7.32381 28.4525 6.6476 28.0156 5.91939 28.0988L1.51887 28.6398C1.51887 28.6398 1.46685 28.6398 1.44604 28.619C1.42524 28.5982 1.41483 28.5774 1.41483 28.5462V19.4851C1.41483 19.4851 1.42524 19.433 1.44604 19.4122C1.46685 19.3914 1.49806 19.381 1.51887 19.3914L5.91939 19.9324C6.6372 20.026 7.32381 19.5787 7.54227 18.8817C7.85437 17.8934 8.24969 16.9259 8.72823 16.0104C9.07153 15.3654 8.89468 14.5644 8.32251 14.117L4.82706 11.3914C4.82706 11.3914 4.79585 11.3498 4.78545 11.3186C4.78545 11.2874 4.78545 11.2666 4.81666 11.2458L11.225 4.83745C11.225 4.83745 11.2666 4.80625 11.2978 4.80625C11.329 4.80625 11.3498 4.81665 11.3706 4.84786L14.0962 8.34331C14.5436 8.91548 15.3342 9.08193 15.9896 8.74903C16.9051 8.27048 17.8726 7.86476 18.8609 7.56307C19.5579 7.34461 19.9948 6.6684 19.9116 5.94019L19.3706 1.53967C19.3706 1.53967 19.3706 1.48765 19.3914 1.46684C19.4122 1.44604 19.433 1.43563 19.4642 1.43563H28.5254C28.5254 1.43563 28.5774 1.44604 28.5982 1.46684C28.619 1.48765 28.6294 1.51886 28.619 1.53967L28.078 5.94019C27.9844 6.658 28.4317 7.34461 29.1287 7.56307C30.117 7.87517 31.0845 8.27048 32 8.74903C32.645 9.09233 33.446 8.91548 33.8934 8.34331L36.619 4.84786C36.619 4.84786 36.6606 4.81665 36.6918 4.80625C36.723 4.80625 36.7438 4.80625 36.7646 4.83745L38.9597 7.03251C39.2302 7.30299 39.6775 7.30299 39.9584 7.03251C40.2289 6.76203 40.2289 6.3147 39.9584 6.03381L37.7633 3.83876C37.4617 3.53706 37.0351 3.37061 36.6086 3.40182C36.1821 3.43303 35.7763 3.6411 35.5163 3.974L32.7906 7.46944C32.7906 7.46944 32.7074 7.52146 32.6658 7.49025C31.6775 6.97009 30.6268 6.53316 29.5657 6.20026C29.5137 6.18986 29.4825 6.13785 29.4929 6.09623L30.0338 1.69571C30.0858 1.26918 29.9506 0.842656 29.6697 0.520159C29.3888 0.197663 28.9727 0.0104065 28.5462 0.0104065H19.4851C19.0585 0.0104065 18.6424 0.197663 18.3615 0.520159C18.0806 0.842656 17.9454 1.26918 17.9974 1.69571L18.5384 6.09623C18.5384 6.09623 18.5176 6.18986 18.4656 6.20026C17.394 6.53316 16.3537 6.97009 15.3654 7.49025C15.3238 7.51106 15.2718 7.50065 15.2406 7.46944L12.515 3.974C12.2549 3.63069 11.8492 3.42263 11.4226 3.40182C10.9961 3.37061 10.5696 3.53706 10.2679 3.83876L3.85957 10.2471C3.55788 10.5488 3.39143 10.9753 3.42264 11.4018C3.45385 11.8284 3.66191 12.2341 3.99481 12.4942L7.49026 15.2198C7.49026 15.2198 7.54227 15.303 7.51106 15.3446C6.99091 16.3329 6.55398 17.3836 6.22108 18.4447C6.21067 18.4968 6.15866 18.528 6.11705 18.5176L1.71653 17.9766C1.29 17.9246 0.863469 18.0598 0.540972 18.3407C0.218476 18.6216 0.0312195 19.0377 0.0312195 19.4642V28.5254C0.0312195 28.9519 0.218476 29.368 0.540972 29.6489C0.863469 29.9298 1.29 30.065 1.71653 30.013L6.11705 29.472C6.11705 29.472 6.21067 29.4929 6.22108 29.5449C6.55398 30.6164 6.99091 31.6567 7.51106 32.645C7.53187 32.6866 7.52147 32.7386 7.49026 32.7698L3.99481 35.4955C3.65151 35.7555 3.44344 36.1613 3.42264 36.5878C3.39143 37.0143 3.55788 37.4408 3.85957 37.7425L10.2679 44.1509C10.5696 44.4525 10.9961 44.619 11.4226 44.5878C11.8492 44.5566 12.2549 44.3485 12.515 44.0156L15.2406 40.5202C15.2406 40.5202 15.3238 40.4681 15.3654 40.4994C16.3537 41.0195 17.4044 41.4564 18.4656 41.7893C18.5176 41.7997 18.5488 41.8518 18.5384 41.8934L17.9974 46.2939C17.9454 46.7204 18.0806 47.147 18.3615 47.4695C18.6424 47.7919 19.0585 47.9792 19.4851 47.9792H28.5462C28.9727 47.9792 29.3888 47.7919 29.6697 47.4695C29.9506 47.147 30.0858 46.7204 30.0338 46.2939L29.4929 41.8934C29.4929 41.8934 29.5137 41.7997 29.5657 41.7893C30.6372 41.4564 31.6775 41.0195 32.6658 40.4994C32.7074 40.4786 32.7594 40.489 32.7906 40.5202L35.5163 44.0156C35.7763 44.3589 36.1821 44.567 36.6086 44.5878C37.0351 44.619 37.4617 44.4525 37.7633 44.1509L44.1717 37.7425C44.4734 37.4408 44.6398 37.0143 44.6086 36.5878C44.5774 36.1613 44.3693 35.7555 44.0364 35.4955L40.541 32.7698C40.541 32.7698 40.489 32.6866 40.5202 32.645C41.0403 31.6567 41.4773 30.606 41.8102 29.5449C41.8206 29.4929 41.8726 29.4616 41.9142 29.472L46.3147 30.013C46.7412 30.065 47.1678 29.9298 47.4903 29.6489C47.8128 29.368 48 28.9519 48 28.5254V19.4642C48 19.0377 47.8128 18.6216 47.4903 18.3407Z" fill="#F76C41"/>
</svg>
