<svg width="48" height="48" viewBox="0 0 48 48" fill="none" xmlns="http://www.w3.org/2000/svg">
<path d="M34.5025 31.9193C32.9041 32.2745 31.2573 32.6297 30.337 31.7417C29.9334 31.3542 29.8365 30.9183 29.7074 30.3047C29.5298 29.4975 29.3199 28.4803 28.3189 27.334C27.2048 26.0585 25.3158 24.7346 23.6367 25.1867C22.1675 25.5742 21.667 27.0434 21.1342 28.5933C20.8597 29.4006 20.553 30.3209 20.0686 31.1766C19.1322 32.888 17.5661 34.3411 15.4188 35.4712C13.6105 34.115 12.1251 32.339 11.1241 30.3047C14.2563 29.5621 17.0817 27.9314 18.8254 25.8163C20.9889 23.2169 21.7962 20.7467 21.1181 18.8739C20.8274 18.0827 20.3754 17.6145 19.9717 17.1786C19.552 16.7427 19.2129 16.3875 19.116 15.7417C18.9869 15.0313 19.2452 14.5308 19.552 13.9011C19.8426 13.3037 20.1816 12.6095 20.2139 11.6731C20.2139 11.1887 20.1493 10.6882 20.004 10.1877C21.2795 9.81634 22.6196 9.6226 24.0242 9.6226H24.0565C23.1362 11.7538 23.1362 14.0303 24.1049 15.4188C24.9284 16.5974 26.2523 16.9526 27.4147 17.2755C28.5772 17.5984 29.5943 17.8728 30.0626 18.8093C30.3209 19.3421 30.2563 19.7457 30.1917 20.2462C30.111 20.7952 30.0141 21.4894 30.45 22.2321C31.2412 23.5399 33.3723 24.2987 35.7134 24.2987C36.5853 24.2987 37.4733 24.2018 38.3451 23.9758C38.3451 26.3007 37.7962 28.5126 36.7467 30.5631C36.5691 30.9021 36.3754 31.2412 36.1655 31.5641C35.6165 31.6287 35.0515 31.7578 34.4864 31.887L34.5025 31.9193ZM9.67104 23.9919C9.67104 17.9697 13.4006 12.8032 18.6801 10.672C18.777 10.9949 18.8254 11.3179 18.8254 11.6408C18.8093 12.2704 18.5671 12.7709 18.3088 13.2876C17.9536 14.0141 17.5499 14.8214 17.7598 15.9838C17.9374 17.0656 18.5025 17.6468 18.9869 18.1635C19.3421 18.5348 19.6488 18.8577 19.8264 19.3582C20.3269 20.7306 19.5843 22.7649 17.776 24.9284C16.1776 26.8496 13.5136 28.3512 10.5752 28.997C9.99395 27.4309 9.67104 25.7518 9.67104 23.9758V23.9919ZM25.558 9.73561C32.2745 10.4622 37.6186 15.8385 38.2805 22.5711C37.0212 22.9263 35.6165 23.0071 34.3249 22.8133C33.0333 22.6034 32 22.1191 31.6448 21.5378C31.4672 21.2472 31.4995 20.9889 31.5641 20.4884C31.6448 19.891 31.7578 19.1483 31.3057 18.2119C30.5631 16.6942 29.0777 16.2906 27.7699 15.9354C26.7366 15.6609 25.7679 15.3865 25.2351 14.6276C24.4924 13.5621 24.6377 11.5116 25.5419 9.71947L25.558 9.73561ZM37.9899 31.2412C39.1362 29.0131 39.7497 26.5106 39.7497 23.9919C39.7497 15.3542 32.7265 8.2341 23.9919 8.2341C15.2573 8.2341 8.25025 15.5641 8.25025 24.0081C8.25025 32.4521 15.4349 39.7659 24.0081 39.7659C26.2038 39.7659 28.3189 39.33 30.3209 38.4581C30.6761 38.2967 30.8375 37.893 30.6761 37.5378C30.5146 37.1826 30.111 37.0212 29.7558 37.1826C27.9475 37.9738 26.0101 38.3774 24.0081 38.3774C21.3602 38.3774 18.8739 37.6509 16.7588 36.4077C18.8254 35.1968 20.3592 33.6791 21.328 31.9031C21.8607 30.9344 22.1998 29.9495 22.4904 29.0938C22.9909 27.6246 23.3138 26.7851 24.0242 26.5913C25.0737 26.3168 26.5429 27.4632 27.2856 28.3027C28.0444 29.1584 28.1897 29.9172 28.3512 30.6276C28.5126 31.3542 28.6579 32.113 29.3683 32.7911C30.8698 34.2442 33.0656 33.7114 34.9707 33.2916C34.228 34.1635 33.4046 34.9384 32.4844 35.6165C32.1776 35.8426 32.0969 36.2785 32.3391 36.6014C32.5651 36.9082 33.001 36.9889 33.3239 36.7467C35.2452 35.3421 36.9243 33.4046 38.0222 31.2735L37.9899 31.2412Z" fill="#031B21"/>
<path d="M39.4914 46.5955C37.7154 46.5955 36.0363 45.9012 34.777 44.6419L33.0656 42.9305H38.9425C39.33 42.9305 39.6529 42.6076 39.6529 42.2201C39.6529 41.8326 39.33 41.5097 38.9425 41.5097H33.0656L34.777 39.7983C36.0363 38.539 37.7154 37.8447 39.4914 37.8447C41.2674 37.8447 42.9465 38.539 44.2059 39.7983L46.5954 42.1878C46.5954 42.1878 46.5954 42.1878 46.5954 42.2201C46.5954 42.2362 46.5954 42.2524 46.5954 42.2524L44.2059 44.6419C42.9465 45.9012 41.2674 46.5955 39.4914 46.5955ZM31.1927 41.5258H11.3017C11.4793 40.8639 11.56 40.1858 11.56 39.4915C11.56 37.3281 10.7205 35.3099 9.20283 33.7922L6.91019 31.4996C6.78103 31.3705 6.63572 31.2736 6.49041 31.1929V11.3018C7.15237 11.4794 7.83048 11.5602 8.52472 11.5602C10.6882 11.5602 12.7064 10.7206 14.224 9.20294L16.5167 6.91031C16.6458 6.78115 16.7427 6.63584 16.8234 6.49053H36.7144C36.5368 7.15249 36.4561 7.83059 36.4561 8.52484C36.4561 10.6883 37.2957 12.7065 38.8133 14.2241L41.106 16.5168C41.2351 16.6459 41.3804 16.7428 41.5257 16.8235V36.7146C40.8638 36.5369 40.1857 36.4562 39.4914 36.4562C37.328 36.4562 35.3098 37.2958 33.7921 38.8134L31.4995 41.1061C31.3703 41.2352 31.2735 41.3805 31.1927 41.5258ZM9.68719 41.9456C9.68719 41.9456 9.68719 41.9618 9.68719 41.9779C9.36428 42.8013 8.86378 43.5602 8.21796 44.206L5.82846 46.5955C5.82846 46.5955 5.82846 46.5955 5.79617 46.5955C5.76388 46.5955 5.76388 46.5955 5.76388 46.5955L3.37437 44.206C2.11504 42.9466 1.42079 41.2675 1.42079 39.4915C1.42079 37.7156 2.11504 36.0364 3.37437 34.7771L5.08577 33.0657V38.9426C5.08577 39.3301 5.40868 39.653 5.79617 39.653C6.18365 39.653 6.50656 39.3301 6.50656 38.9426V33.0657L8.21796 34.7771C9.4773 36.0364 10.1715 37.7156 10.1715 39.4915C10.1715 40.3472 10.0101 41.1707 9.70333 41.9456H9.68719ZM3.81029 8.20193L1.42079 5.81243C1.42079 5.81243 1.42079 5.81243 1.42079 5.78014C1.42079 5.74784 1.42079 5.74784 1.42079 5.74784L3.81029 3.35834C5.06963 2.099 6.74874 1.40476 8.52472 1.40476C10.3007 1.40476 11.9798 2.099 13.2392 3.35834L14.9506 5.06974H9.07366C8.68618 5.06974 8.36327 5.39265 8.36327 5.78014C8.36327 6.16762 8.68618 6.49053 9.07366 6.49053H14.9506L13.2392 8.20193C11.9798 9.46127 10.3007 10.1555 8.52472 10.1555C6.74874 10.1555 5.06963 9.46127 3.81029 8.20193ZM47.5802 43.2695C47.8547 42.9951 48.0161 42.6237 48.0161 42.2362C48.0161 41.8488 47.8708 41.4774 47.5802 41.2029L45.1907 38.8134C44.5288 38.1515 43.7538 37.6025 42.9304 37.2151V16.8074C43.0757 16.7267 43.221 16.6298 43.3502 16.5006L45.6428 14.208C47.2412 12.6096 48.0969 10.3815 48 8.12121C47.9839 7.73372 47.661 7.42696 47.2573 7.45925C46.8698 7.47539 46.5631 7.81444 46.5954 8.20193C46.6761 10.0748 45.9657 11.8992 44.6579 13.2231L42.9465 14.9345V9.05763C42.9465 8.67015 42.6236 8.34724 42.2361 8.34724C41.8486 8.34724 41.5257 8.67015 41.5257 9.05763V14.9345L39.8143 13.2231C38.555 11.9638 37.8608 10.2847 37.8608 8.50869C37.8608 6.73271 38.555 5.0536 39.8143 3.79426L42.2038 1.40476C42.2038 1.40476 42.2523 1.38861 42.2846 1.40476L44.6741 3.79426C45.1423 4.26248 45.5298 4.79527 45.8365 5.3765C46.0141 5.71555 46.4501 5.84472 46.7891 5.66712C47.1282 5.48952 47.2573 5.0536 47.0797 4.71455C46.7084 4.0203 46.224 3.37448 45.6589 2.8094L43.2694 0.419893C42.7043 -0.145193 41.7679 -0.145193 41.2028 0.419893L38.8133 2.8094C38.1514 3.47136 37.6024 4.24633 37.2149 5.06974H16.8073C16.7265 4.92443 16.6297 4.77913 16.5005 4.64996L14.2079 2.35733C12.6902 0.839671 10.6559 0.000114826 8.50858 0.000114826C6.36125 0.000114826 4.32694 0.839671 2.80928 2.35733L0.435923 4.74684C0.161453 5.02131 0 5.39265 0 5.78014C0 6.16762 0.145308 6.53896 0.435923 6.81344L2.82543 9.20294C3.48739 9.8649 4.26236 10.4138 5.08577 10.8013V31.209C4.94046 31.2897 4.79516 31.3866 4.66599 31.5158L2.37336 33.8084C0.855701 35.3261 0.0161453 37.3604 0.0161453 39.5077C0.0161453 41.655 0.855701 43.6893 2.37336 45.207L4.76287 47.5965C5.03734 47.871 5.40868 48.0324 5.79617 48.0324C6.18365 48.0324 6.555 47.8871 6.82947 47.5965L9.21897 45.207C9.88093 44.545 10.4299 43.7701 10.8174 42.9466H31.225C31.3058 43.0919 31.4026 43.2373 31.5318 43.3664L33.8244 45.659C35.3421 47.1767 37.3764 48.0163 39.5237 48.0163C41.671 48.0163 43.7054 47.1767 45.223 45.659L47.6125 43.2695H47.5802Z" fill="#031B21"/>
</svg>
