<svg width="48" height="48" viewBox="0 0 48 48" fill="none" xmlns="http://www.w3.org/2000/svg">
<path d="M27.0319 17.0366C27.0943 17.1406 27.1567 17.2446 27.2295 17.3486L24.0156 20.5625V15.8717C25.0765 16.1005 26.0958 16.4958 27.0319 17.0366ZM29.268 19.7304L25.3157 23.6828C24.9725 23.2147 24.546 22.8195 24.0572 22.5075L28.0719 18.4927C28.436 18.9296 28.8416 19.3456 29.268 19.7304ZM30.3809 20.6041C30.5681 20.7393 30.7658 20.8537 30.9634 20.9785C31.4626 21.8522 31.8371 22.7987 32.0763 23.7764H27.2087L30.3809 20.6041ZM32.3779 26.2622C32.3779 26.4806 32.3779 26.6886 32.3571 26.8966H26.1062C26.1374 26.6886 26.1478 26.4806 26.1478 26.2622C26.1478 25.8878 26.0958 25.5237 26.0126 25.1805H32.3259C32.3675 25.5445 32.3779 25.8982 32.3779 26.2622ZM20.8849 21.9458V15.6637C21.1658 15.6429 21.457 15.6325 21.7482 15.6325C22.0394 15.6325 22.3203 15.6429 22.6115 15.6637V21.9458C22.3307 21.8938 22.0498 21.8626 21.7482 21.8626C21.4466 21.8626 21.1658 21.8938 20.8849 21.9458ZM19.4808 31.5146V36.6527C18.1703 36.3718 16.9534 35.8414 15.8717 35.1237L19.4808 31.5146ZM17.9935 28.5816C18.2951 29.0704 18.7008 29.5073 19.1688 29.8401L14.738 34.2709C14.3012 33.8964 13.906 33.4804 13.5419 33.0331L17.9935 28.5816ZM16.267 28.3112L12.6995 31.8683C12.0338 30.797 11.545 29.5905 11.2953 28.3112H16.2566H16.267ZM17.4735 25.1805C17.3902 25.5237 17.3382 25.8878 17.3382 26.2622C17.3382 26.4806 17.359 26.6886 17.3798 26.8966H11.1289C11.1185 26.6886 11.1081 26.4702 11.1081 26.2622C11.1081 25.8982 11.1289 25.5341 11.1601 25.1805H17.4735ZM16.267 23.7764H11.3993C11.6906 22.5491 12.2002 21.4154 12.8763 20.3961L16.2566 23.7764H16.267ZM16.1317 17.2342C17.1406 16.5998 18.2639 16.1421 19.4704 15.8821V20.5729L16.1317 17.2342ZM19.4288 22.5179C18.94 22.8195 18.5031 23.2251 18.1703 23.6932L13.7395 19.2624C14.114 18.8256 14.53 18.4303 14.9772 18.0663L19.4288 22.5179ZM22.6011 30.5889V36.8711C22.3203 36.8919 22.029 36.9023 21.7378 36.9023C21.4466 36.9023 21.1658 36.8919 20.8745 36.8711V30.5889C21.1554 30.641 21.4362 30.6722 21.7378 30.6722C22.0394 30.6722 22.3203 30.641 22.6011 30.5889ZM21.7378 29.268C20.0841 29.268 18.7424 27.9263 18.7424 26.2726C18.7424 24.6189 20.0841 23.2771 21.7378 23.2771C23.3915 23.2771 24.7333 24.6189 24.7333 26.2726C24.7333 27.9263 23.3915 29.268 21.7378 29.268ZM27.6143 35.1237C26.5326 35.8414 25.3157 36.3718 24.0052 36.6527V31.5146L27.6143 35.1237ZM27.2087 28.3112H32.1699C31.9203 29.6009 31.4314 30.797 30.7658 31.8683L27.1983 28.3112H27.2087ZM29.9441 33.0331C29.5801 33.4804 29.1744 33.886 28.748 34.2709L24.3172 29.8401C24.7853 29.4969 25.1805 29.0704 25.4925 28.5816L29.9441 33.0331ZM35.7374 22.5283C36.0598 23.7452 36.2262 25.0037 36.2262 26.2726C36.2262 34.2605 29.7257 40.7506 21.7482 40.7506C16.7662 40.7506 12.2002 38.244 9.52719 34.0316C9.31918 33.7092 8.88234 33.6052 8.55991 33.8132C8.23749 34.0212 8.13348 34.4581 8.3415 34.7805C11.2745 39.3881 16.2878 42.1443 21.7586 42.1443C30.5161 42.1443 37.6511 35.0197 37.6511 26.2518C37.6511 24.9933 37.5055 23.7452 37.2143 22.5387C38.7432 22.4763 40.1993 22.1122 41.5411 21.4882C41.9155 23.0379 42.1027 24.6397 42.1027 26.2518C42.1027 31.681 39.9913 36.7879 36.143 40.6362C32.3051 44.4741 27.1983 46.5959 21.7586 46.5959C16.319 46.5959 11.2225 44.4845 7.37421 40.6362C3.53629 36.7983 1.41452 31.6914 1.41452 26.2518C1.41452 20.8121 3.52589 15.7157 7.37421 11.8674C11.2121 8.02947 16.319 5.90769 21.7586 5.90769C23.3811 5.90769 24.9829 6.09491 26.543 6.46934C25.919 7.79025 25.5445 9.25677 25.4821 10.7961C24.2652 10.5049 23.0275 10.3593 21.769 10.3593C13.0115 10.3593 5.87649 17.4839 5.87649 26.2518C5.87649 28.1135 6.19892 29.9441 6.83337 31.681C6.96858 32.0451 7.37421 32.2323 7.73824 32.0971C8.10227 31.9619 8.28949 31.5562 8.15428 31.1922C7.58223 29.6113 7.29101 27.9471 7.29101 26.2414C7.29101 18.2535 13.7915 11.7634 21.769 11.7634C23.0379 11.7634 24.2964 11.9298 25.5133 12.2522C25.5965 13.2091 25.8046 14.1348 26.1062 15.0189C24.7229 14.478 23.3083 14.2492 21.8626 14.2388C15.1957 14.1868 9.72481 19.5744 9.72481 26.2518C9.72481 32.9291 15.1749 38.2856 21.7586 38.2856C25.5757 38.2856 29.268 36.3822 31.5042 33.3036C32.9499 31.317 33.7924 28.8832 33.7924 26.2414C33.7924 24.7541 33.5116 23.2771 32.9811 21.8938C33.8548 22.2059 34.7805 22.4035 35.7478 22.4867L35.7374 22.5283ZM36.7151 0.0312026C32.7315 0.0312026 29.2264 2.10098 27.2295 5.23164C25.4509 4.7636 23.61 4.53478 21.7482 4.53478C15.9445 4.53478 10.4841 6.79177 6.37573 10.9001C2.25699 14.998 0 20.4585 0 26.2622C0 32.0659 2.25699 37.5263 6.36533 41.6347C10.4737 45.743 15.9341 48 21.7378 48C27.5415 48 33.0019 45.743 37.1103 41.6347C41.2186 37.5263 43.4756 32.0659 43.4756 26.2622C43.4756 24.4108 43.2364 22.5699 42.7788 20.7913C43.8917 20.0737 44.8901 19.1584 45.7222 18.0559C45.951 17.7439 45.8886 17.307 45.587 17.0678C45.275 16.839 44.8381 16.9014 44.5989 17.203C42.6956 19.7304 39.8769 21.145 36.7047 21.145C31.1818 21.145 26.8446 16.6726 26.8446 11.2849C26.8446 5.89729 31.2858 1.42492 36.7151 1.42492C42.1443 1.42492 46.5751 5.84529 46.5751 11.2849C46.5751 12.3666 46.3983 13.4171 46.0654 14.426C45.9406 14.79 46.1382 15.1957 46.5127 15.3205C46.8767 15.4453 47.2823 15.2477 47.4072 14.8732C47.792 13.7187 47.9896 12.5122 47.9896 11.2745C47.9896 5.06522 42.9348 0 36.7151 0V0.0312026Z" fill="#031B21"/>
<path d="M43.1116 8.4039C42.7476 8.52871 42.55 8.92394 42.6644 9.29837C42.8828 9.94323 42.9868 10.6089 42.9868 11.2953C42.9868 14.7588 40.1682 17.5671 36.7151 17.5671C35.2485 17.5671 33.8756 17.0678 32.7627 16.1629H33.0852C33.47 16.1629 33.7924 15.8509 33.7924 15.4557C33.7924 15.0605 33.4804 14.7484 33.0852 14.7484H31.1194C30.7554 14.7484 30.4017 15.0605 30.4121 15.4557V17.4214C30.4121 17.8063 30.7242 18.1287 31.1194 18.1287C31.5146 18.1287 31.8267 17.8167 31.8267 17.4214V17.203C33.1892 18.3263 34.9261 18.9712 36.7151 18.9712C40.9482 18.9712 44.3909 15.5285 44.3909 11.2953C44.3909 10.4633 44.2557 9.6416 43.9957 8.85113C43.8709 8.4871 43.4756 8.28949 43.1012 8.4039H43.1116Z" fill="#031B21"/>
<path d="M30.7657 13.2715C30.5577 12.6371 30.4433 11.961 30.4433 11.2849C30.4433 7.82145 33.2619 5.01322 36.715 5.01322C38.1815 5.01322 39.5544 5.51246 40.6673 6.41733H40.3449C39.9601 6.41733 39.6377 6.72936 39.6377 7.12459C39.6377 7.50943 39.9497 7.83185 40.3449 7.83185H42.3107C42.6747 7.83185 43.0283 7.51983 43.0179 7.12459V5.15883C43.0179 4.774 42.7059 4.45157 42.3107 4.45157C41.9154 4.45157 41.6034 4.7636 41.6034 5.15883V5.37725C40.2409 4.25395 38.504 3.6091 36.715 3.6091C32.4819 3.6091 29.0392 7.05179 29.0392 11.2849C29.0392 12.117 29.1744 12.9283 29.4344 13.7187C29.5592 14.0932 29.9648 14.2804 30.3185 14.166C30.6825 14.0412 30.8905 13.6459 30.7657 13.2819V13.2715Z" fill="#031B21"/>
</svg>
