<svg width="48" height="48" viewBox="0 0 48 48" fill="none" xmlns="http://www.w3.org/2000/svg">
<path d="M40.3745 43.2146C40.0936 43.4226 39.948 43.4434 39.896 43.4538C39.8648 43.4122 39.8231 43.3186 39.7919 43.2562C39.6567 42.9857 39.459 42.5696 38.9909 42.2991C38.3771 41.9454 37.7737 42.1118 37.3888 42.2159C37.3056 42.2367 37.1808 42.2679 37.1079 42.2887C37.0871 42.2055 37.0663 42.0494 37.0559 41.9454C37.0143 41.5397 36.9519 40.9259 36.4109 40.5618C35.9532 40.2497 35.3602 40.2393 34.6424 40.5202C34.2783 40.6658 34.1014 41.0715 34.2471 41.4252C34.3927 41.7893 34.7984 41.9662 35.1521 41.8206C35.4122 41.7165 35.5579 41.7165 35.6099 41.7165C35.6307 41.7997 35.6515 41.9558 35.6619 42.0806C35.7035 42.476 35.7555 43.0689 36.2757 43.4538C36.8062 43.8388 37.3784 43.6827 37.7633 43.5787C38.065 43.4955 38.2003 43.4642 38.3043 43.5267C38.3875 43.5683 38.4291 43.6619 38.5332 43.87C38.6684 44.1613 38.8869 44.6086 39.4382 44.7958C39.5839 44.8479 39.7399 44.8687 39.896 44.8687C40.3121 44.8687 40.749 44.7022 41.2068 44.3589C41.5189 44.13 41.5917 43.6931 41.3524 43.381C41.1235 43.0689 40.6866 42.9961 40.3745 43.2354V43.2146Z" fill="#031B21"/>
<path d="M4.25488 46.5956V44.2029C4.25488 44.0988 4.3277 44.0052 4.42133 43.974L9.6541 42.4031C9.96619 42.3095 10.2367 42.1326 10.4447 41.883L13.368 38.3667C13.4096 38.3147 13.4824 38.2835 13.5449 38.2835H20.775C21.0663 38.2835 21.3472 38.2107 21.5969 38.065L27.277 34.7776C27.277 34.7776 27.3706 34.7464 27.4226 34.7464L34.0286 35.5995C34.0286 35.5995 34.1222 35.6307 34.1638 35.6619L37.5553 38.8765C37.8153 39.1157 38.1482 39.2718 38.4915 39.3134L43.173 39.8648C43.2874 39.8752 43.381 39.9792 43.381 40.0936V46.5852H4.25488V46.5956ZM39.844 35.4434L40.9363 36.13L39.7191 38.0546L38.658 37.9298C38.554 37.9298 38.4603 37.8049 38.3875 37.7425L39.844 35.4434ZM39.9584 32.3329L43.6931 34.7048L43.0065 35.7971L39.2718 33.4252L39.9584 32.3329ZM47.2822 46.606H44.775V40.1144C44.775 39.2822 44.1508 38.5852 43.329 38.4812L41.2588 38.2419L42.1118 36.8895L42.528 37.1495C43.0273 37.4616 43.6931 37.3264 44.0156 36.8166L45.0559 35.173C45.212 34.9337 45.264 34.6424 45.2016 34.3615C45.1391 34.0806 44.9727 33.8414 44.723 33.6853L40.4265 30.9597C39.9272 30.6372 39.2614 30.7932 38.9389 31.2926L37.8986 32.9363C37.5865 33.4252 37.7321 34.1118 38.2315 34.4239L38.6476 34.684L37.3368 36.7438L35.1209 34.6424C34.8713 34.4031 34.5488 34.2471 34.2055 34.2055L27.5995 33.3524C27.2458 33.3108 26.8817 33.3836 26.5696 33.5605L20.8895 36.8479C20.8895 36.8479 20.8166 36.8791 20.775 36.8791H13.5449C13.0559 36.8791 12.5982 37.0975 12.2861 37.472L9.36281 40.9883C9.36281 40.9883 9.28999 41.0507 9.24837 41.0611L4.0156 42.632C3.329 42.8401 2.85046 43.4851 2.85046 44.2029V46.5956H0.707412C0.322497 46.5956 0 46.9077 0 47.303C0 47.6983 0.312094 48.0104 0.707412 48.0104H47.303C47.6879 48.0104 48.0104 47.6983 48.0104 47.303C48.0104 46.9077 47.6983 46.5956 47.303 46.5956L47.2822 46.606Z" fill="#031B21"/>
<path d="M16.8218 44.2653H15.2094L14.4083 42.8713L15.2094 41.4772H16.8218L17.6229 42.8713L16.8218 44.2653ZM17.935 40.6034C17.7477 40.2809 17.394 40.0728 17.0195 40.0728H15.0117C14.6372 40.0728 14.2835 40.2809 14.0962 40.6034L13.0871 42.3407C12.8999 42.6632 12.8999 43.0793 13.0871 43.4018L14.0962 45.1391C14.2835 45.4616 14.6372 45.6697 15.0117 45.6697H17.0195C17.394 45.6697 17.7477 45.4616 17.935 45.1391L18.9441 43.4018C19.1313 43.0793 19.1313 42.6632 18.9441 42.3407L17.935 40.6034Z" fill="#031B21"/>
<path d="M30.6372 43.6099L27.7867 41.7997L28.4733 40.7074L31.3238 42.5175L30.6372 43.6099ZM27.6619 39.3654L25.7581 42.3615L24.6658 41.6749L27.0377 37.9402L28.13 38.6268L27.6723 39.355L27.6619 39.3654ZM32.3537 41.5084L29.2224 39.5215L29.4824 39.1053C29.8049 38.606 29.6489 37.9402 29.1495 37.6177L27.5058 36.5774C27.0065 36.2549 26.3407 36.4109 26.0182 36.9103L23.2926 41.2068C22.9701 41.7061 23.1261 42.3719 23.6255 42.6944L25.2692 43.7347C25.446 43.8491 25.6437 43.9012 25.8414 43.9012C26.1951 43.9012 26.5488 43.7243 26.7568 43.4018L27.0169 42.9857L30.1482 44.9727C30.3251 45.0871 30.5228 45.1391 30.7204 45.1391C31.0741 45.1391 31.4278 44.9623 31.6359 44.6398L32.6762 42.9961C32.8322 42.7568 32.8843 42.4655 32.8218 42.1846C32.7594 41.9038 32.593 41.6645 32.3433 41.5084H32.3537Z" fill="#031B21"/>
<path d="M26.788 13.5761H21.212V5.53446H26.788V13.5761ZM1.64369 5.53446H6.98049C7.36541 5.53446 7.68791 5.22237 7.68791 4.82705C7.68791 4.43173 7.37581 4.11964 6.98049 4.11964H1.64369C1.51886 4.11964 1.40442 4.0156 1.40442 3.88036V1.64369C1.40442 1.51886 1.50845 1.40442 1.64369 1.40442H46.3667C46.4916 1.40442 46.606 1.50845 46.606 1.64369V3.89077C46.606 4.0156 46.502 4.13004 46.3667 4.13004H10.2575C9.87256 4.13004 9.55007 4.44213 9.55007 4.83745C9.55007 5.23277 9.86216 5.54486 10.2575 5.54486H19.8075V13.5865H17.2588C16.7802 13.5865 16.3225 13.8153 16.0312 14.2003L9.342 22.9805C8.9883 23.4486 8.92588 24.0624 9.17555 24.593L12.0364 30.5019C12.2965 31.0325 12.8375 31.3758 13.4304 31.3758H15.8544C16.9259 31.3758 17.6957 30.2419 17.29 29.2536L15.5111 24.801C15.5111 24.801 15.5007 24.7074 15.5319 24.6658L19.0377 19.8804C19.0377 19.8804 19.1105 19.8179 19.1521 19.8179H28.8479C28.8479 19.8179 28.9311 19.8388 28.9623 19.8804L32.4681 24.6658C32.4681 24.6658 32.4994 24.7594 32.4889 24.801L30.71 29.2536C30.3043 30.2419 31.0741 31.3862 32.1456 31.3758H34.5696C35.1626 31.3758 35.7035 31.0325 35.9636 30.5019L38.8245 24.593C39.0845 24.0624 39.0221 23.4486 38.658 22.9805L36.1404 19.6723C35.9012 19.3602 35.4642 19.3082 35.1521 19.5371C34.8401 19.7763 34.788 20.2133 35.0169 20.5254L37.5345 23.8335C37.5345 23.8335 37.5761 23.9272 37.5449 23.9792L34.684 29.8882C34.684 29.8882 34.6112 29.9714 34.5592 29.9714H32.1352C32.0312 29.9714 31.9688 29.8778 32 29.7737L33.7789 25.3212C33.9766 24.8218 33.9038 24.2705 33.5917 23.8335L30.0858 19.0481C29.7945 18.6528 29.3264 18.4135 28.8375 18.4135H19.1417C18.6528 18.4135 18.1847 18.6528 17.8934 19.0481L14.3875 23.8335C14.0754 24.2705 14.0026 24.8218 14.2003 25.3212L15.9792 29.7737C16.0208 29.8778 15.9584 29.961 15.844 29.9714H13.42C13.368 29.9714 13.316 29.9402 13.2952 29.8882L10.4343 23.9792C10.4343 23.9792 10.4135 23.8752 10.4447 23.8335L17.1339 15.0533C17.1339 15.0533 17.2068 15.0013 17.2484 15.0013H30.7204C30.7204 15.0013 30.8036 15.0221 30.8349 15.0533L33.0091 17.9038C33.2484 18.2159 33.6853 18.2679 33.9974 18.039C34.3095 17.7997 34.3615 17.3628 34.1326 17.0507L31.9584 14.2003C31.6671 13.8153 31.2094 13.5865 30.7308 13.5865H28.1821V5.54486H46.3459C47.251 5.54486 47.9896 4.80624 47.9896 3.90117V1.64369C47.9896 0.738622 47.251 0 46.3459 0H1.64369C0.738622 0 0 0.738622 0 1.64369V3.89077C0 4.79584 0.738622 5.53446 1.64369 5.53446Z" fill="#031B21"/>
</svg>
